HIERARCHY
ROOT Hips
{
  OFFSET 0 0 0
  CHANNELS 6 Xposition Yposition Zposition Zrotation Yrotation Xrotation
  JOINT LeftThigh
  {
    OFFSET 8.409438 0 -5.917753
    CHANNELS 3 Zrotation Yrotation Xrotation
    JOINT LeftLeg
    {
      OFFSET 0 0 -42.358652
      CHANNELS 3 Zrotation Yrotation Xrotation
      JOINT LeftFoot
      {
        OFFSET 0 0 -39.357303
        CHANNELS 3 Zrotation Yrotation Xrotation
      }
    }
  }
  JOINT RightThigh
  {
    OFFSET -8.409438 0 -5.917753
    CHANNELS 3 Zrotation Yrotation Xrotation
    JOINT RightLeg
    {
      OFFSET 0 0 -42.358652
      CHANNELS 3 Zrotation Yrotation Xrotation
      JOINT RightFoot
      {
        OFFSET 0 0 -39.357303
        CHANNELS 3 Zrotation Yrotation Xrotation
      }
    }
  }
  JOINT SpineLow
  {
    OFFSET 0 0 4.719101
    CHANNELS 3 Zrotation Yrotation Xrotation
    JOINT SpineMid
    {
      OFFSET 0 0 12.899191
      CHANNELS 3 Zrotation Yrotation Xrotation
      JOINT Chest
      {
        OFFSET 0 0 12.899191
        CHANNELS 3 Zrotation Yrotation Xrotation
        JOINT LeftShoulder
        {
          OFFSET 7.550562 1.41573 9.438202
          CHANNELS 3 Zrotation Yrotation Xrotation
          JOINT LeftArm
          {
            OFFSET 9.155056 0 4.247191
            CHANNELS 3 Zrotation Yrotation Xrotation
            JOINT LeftForearm
            {
              OFFSET 0 0 25.771955
              CHANNELS 3 Zrotation Yrotation Xrotation
              JOINT LeftHand
              {
                OFFSET 0 0 25.197169
                CHANNELS 3 Zrotation Yrotation Xrotation
              }
            }
          }
        }
        JOINT RightShoulder
        {
          OFFSET -7.550562 1.41573 9.438202
          CHANNELS 3 Zrotation Yrotation Xrotation
          JOINT RightArm
          {
            OFFSET -9.155056 0 4.247191
            CHANNELS 3 Zrotation Yrotation Xrotation
            JOINT RightForearm
            {
              OFFSET 0 0 -25.771955
              CHANNELS 3 Zrotation Yrotation Xrotation
              JOINT RightHand
              {
                OFFSET 0 0 -25.197169
                CHANNELS 3 Zrotation Yrotation Xrotation
              }
            }
          }
        }
        JOINT Neck
        {
          OFFSET 0 0 15.101124
          CHANNELS 3 Zrotation Yrotation Xrotation
          JOINT Head
          {
            OFFSET 0 0 11.325843
            CHANNELS 3 Zrotation Yrotation Xrotation
            End Site
            {
              OFFSET 0 0 14.157303
            }
          }
        }
      }
    }
  }
}
MOTION
Frames: 7
Frame Time: 0.0
0.0  89.887642  0.0  -0.057347  25.153089  -94.425181  13.457626  -39.52242  -7.267715  -6.9466  44.454442  40.46357  3.231736  2.271343  1.508553  -31.998906  -2.043019  -41.922538  13.838993  15.947028  62.839656  6.903133  3.217054  0.987412  -2.458735  0.555784  0.981945  -6.698088  1.616853  2.624868  -6.698088  1.616853  2.624869  -15.91519  15.675533  4.331495  137.489138  40.778676  -148.064655  -35.452701  -8.85779  62.198205  70.500022  20.41713  -8.136105  2.79457  -4.738082  19.646319  11.340738  59.482802  -22.477279  -24.313512  -11.208644  -76.454159  68.961568  0.271242  -38.361177  -20.068577  -3.636987  3.123007  -15.028262  -2.834017  2.224673  
0.0  89.887642  0.0  0.077142  24.4408  -94.141954  14.2112  -39.452888  -7.249298  -7.580513  44.386586  39.667808  3.385634  2.463324  1.645062  -31.160081  -2.549044  -42.205032  14.314596  16.091013  63.15517  7.038753  3.22137  0.872367  -2.366471  0.648949  0.990153  -6.442264  1.868381  2.64068  -6.442264  1.868381  2.64068  -16.901381  15.373394  3.872495  138.265711  40.762076  -148.505634  -35.457525  -9.111902  63.790162  71.065259  21.479976  -7.59653  2.707019  -5.377293  18.960399  13.947723  60.127199  -20.070167  -24.870361  -11.052675  -75.874671  68.59063  0.944236  -38.528089  -20.135553  -4.161655  3.119388  -15.074241  -3.228267  2.203941  
0.0  89.887642  0.0  0.210149  23.309576  -93.660003  15.488306  -39.363563  -7.329886  -7.972422  44.143888  38.986639  3.325318  2.621163  1.749956  -29.948279  -3.20515  -42.741599  14.600998  16.364195  63.515054  7.025239  3.275072  0.758364  -2.218535  0.762542  0.98613  -6.03388  2.17235  2.623817  -6.03388  2.17235  2.623817  -18.245514  14.880117  3.308626  139.622755  40.84097  -148.712577  -35.486335  -9.020311  65.925365  72.234423  22.3466  -7.098965  2.440626  -6.237726  17.996443  18.269268  60.971684  -16.088206  -25.507298  -11.269618  -75.332967  68.103199  1.303931  -38.573723  -20.190826  -4.86649  3.086266  -15.109863  -3.756775  2.154879  
0.0  89.887642  0.0  0.35363  21.649827  -93.167134  17.031878  -39.253839  -7.236039  -8.21153  43.76584  38.299734  3.357384  2.842949  1.865339  -28.290271  -3.87134  -43.375115  14.855647  16.664522  63.96906  7.353678  3.395143  0.662807  -2.037597  0.892465  0.967931  -5.535274  2.518569  2.569541  -5.535273  2.518569  2.569541  -19.605128  14.212827  2.846656  141.56898  41.122384  -148.407377  -35.571601  -8.576805  68.567156  73.938753  23.033993  -6.510883  2.159881  -7.120987  16.915974  24.489848  61.461298  -10.254313  -25.838331  -11.789757  -75.236356  67.636707  1.044984  -38.364966  -20.071142  -5.625543  3.106266  -15.013056  -4.326772  2.145177  
0.0  89.887642  0.0  0.564099  19.618032  -92.683744  18.579071  -39.077819  -6.846852  -8.263545  43.2287  37.681136  3.258884  3.031651  1.840225  -26.32723  -4.468485  -44.000155  14.964208  16.966293  64.394568  7.52264  3.481553  0.580532  -1.874784  1.043835  0.919247  -5.087036  2.922047  2.431462  -5.087036  2.922047  2.431462  -20.629997  13.399705  2.733078  144.042454  41.472967  -147.369361  -35.232494  -8.093694  71.705969  75.857438  23.348109  -5.910225  1.974273  -7.926697  15.748169  32.51487  61.10527  -2.831825  -25.670728  -12.495195  -75.649188  67.538672  0.059155  -37.86662  -19.668433  -6.365352  3.229839  -14.702868  -4.884008  2.21688  
0.0  89.887642  0.0  0.885391  17.257259  -92.299885  19.869862  -38.800624  -5.942666  -8.181618  42.507955  37.010887  3.099  3.268753  1.702659  -24.100947  -4.925283  -44.500477  15.011263  17.332732  64.788432  7.592471  3.593431  0.495683  -1.727428  1.233423  0.870817  -4.680473  3.431193  2.292654  -4.680473  3.431193  2.292654  -21.465447  12.29279  2.532708  146.852763  41.977591  -145.828398  -34.609243  -7.700975  75.19291  77.750882  23.757126  -5.215226  1.857721  -8.646424  14.381437  41.898339  59.663005  5.4545  -25.25808  -13.206542  -76.44854  67.866651  -1.753369  -36.958292  -18.990561  -7.135851  3.415375  -14.184945  -5.464306  2.338007  
0.0  89.887642  0.0  1.206797  14.70531  -92.003959  20.599801  -38.391053  -4.512789  -7.839017  41.602623  36.233074  3.179293  3.503569  1.551412  -21.912208  -5.406825  -44.868411  15.179802  17.521872  65.115695  7.717281  3.753622  0.466871  -1.59943  1.441192  0.828832  -4.326696  3.991708  2.171439  -4.326696  3.991708  2.17144  -21.882188  11.152284  2.354121  149.852016  43.408616  -143.591831  -33.655537  -7.340657  78.684295  79.689898  24.540054  -4.367138  1.798064  -9.185523  13.156109  50.87779  57.230058  13.017117  -24.641367  -13.882132  -77.710826  68.808511  -3.840522  -35.899499  -18.090634  -7.948016  3.59801  -13.499655  -6.073845  2.459985  
